<svg width="21" height="20" viewBox="0 0 21 20" fill="none" xmlns="http://www.w3.org/2000/svg">
  <g clip-path="url(#clip0_5036_23892)">
    <path d="M10.0959 9.63406C11.3899 9.63406 12.5104 9.15934 13.426 8.22274C14.3415 7.28634 14.8056 6.14056 14.8056 4.8169C14.8056 3.49362 14.3415 2.34773 13.4258 1.41097C12.5101 0.474686 11.3898 0 10.0959 0C8.80178 0 7.68154 0.474686 6.76604 1.41113C5.85054 2.34757 5.38625 3.4935 5.38625 4.8169C5.38625 6.14056 5.8505 7.28649 6.76619 8.22294C7.68188 9.15922 8.80224 9.63406 10.0959 9.63406ZM18.3366 15.379C18.3101 14.9893 18.2567 14.5641 18.1781 14.1153C18.0987 13.663 17.9966 13.2354 17.8742 12.8446C17.7479 12.4407 17.576 12.0419 17.3636 11.6596C17.1431 11.2629 16.8841 10.9175 16.5935 10.6332C16.2896 10.3358 15.9176 10.0967 15.4873 9.92227C15.0586 9.74883 14.5834 9.66094 14.0752 9.66094C13.8756 9.66094 13.6826 9.74469 13.3097 9.99297C13.0447 10.1695 12.7789 10.3447 12.5124 10.5187C12.2562 10.6857 11.9092 10.8421 11.4806 10.9837C11.0625 11.1221 10.6379 11.1923 10.2188 11.1923C9.79981 11.1923 9.37536 11.1221 8.95675 10.9837C8.52864 10.8422 8.18164 10.6859 7.92576 10.5189C7.62902 10.325 7.36055 10.148 7.12766 9.99277C6.7553 9.74453 6.5621 9.66074 6.36252 9.66074C5.85409 9.66074 5.37911 9.74879 4.9505 9.92246C4.52055 10.0966 4.14835 10.3357 3.84416 10.6334C3.55373 10.9178 3.2946 11.263 3.0744 11.6596C2.86213 12.0419 2.69028 12.4406 2.56375 12.8448C2.44154 13.2356 2.33938 13.663 2.26002 14.1153C2.18139 14.5635 2.128 14.9888 2.10157 15.3794C2.07528 15.7725 2.06225 16.1664 2.0625 16.5604C2.0625 17.6045 2.38697 18.4496 3.02681 19.0729C3.65875 19.688 4.49489 20.0001 5.51171 20.0001H14.9269C15.9437 20.0001 16.7795 19.6882 17.4116 19.073C18.0516 18.4501 18.3761 17.6048 18.3761 16.5603C18.3759 16.1573 18.3627 15.7598 18.3366 15.379Z" fill="white"/>
  </g>
  <defs>
    <clipPath id="clip0_5036_23892">
      <rect width="19.5536" height="20" fill="white" transform="translate(0.664062)"/>
    </clipPath>
  </defs>
</svg>
